# 3ds Max Wavefront OBJ Exporter v0.94b - (c)2007 guruware
# File Created: 22.04.2012 10:19:22

#
# object StaticMeshActor_7
#

v  751.0382 181.1739 -317.4409
v  747.9474 177.8951 -328.1124
v  735.4879 175.5925 -323.1016
v  738.1389 177.5772 -319.1106
v  742.4887 179.4945 -312.0335
v  763.2360 170.0286 -321.2468
v  760.4228 173.8574 -330.3786
v  757.9744 173.0334 -328.9765
v  760.7865 170.0234 -320.4703
v  761.2050 158.3791 -318.7855
v  763.9433 158.0859 -319.5180
v  764.0416 165.0697 -319.3057
v  761.4477 165.2137 -318.5512
v  783.9661 173.7691 -322.5887
v  783.9645 172.2807 -327.9669
v  782.3964 172.3962 -330.1788
v  774.3031 175.3957 -325.6998
v  777.3019 175.9979 -319.4500
v  780.2438 175.4147 -314.1269
v  782.7128 171.6228 -334.9632
v  782.9139 170.8298 -341.2905
v  771.0759 174.4585 -336.3852
v  757.3182 172.5256 -335.9187
v  756.1251 172.8863 -334.5217
v  730.4549 170.4401 -344.8646
v  746.2693 173.3033 -344.2175
v  744.1942 164.2154 -364.7755
v  731.6386 161.3994 -365.0709
v  746.6941 176.4965 -334.4488
v  736.1090 175.2476 -330.5627
v  746.9508 180.3750 -308.5207
v  752.3666 181.0413 -311.4422
v  753.9853 181.3557 -307.7216
v  756.6531 163.5596 -367.8672
v  762.0645 166.3788 -361.3029
v  767.3552 158.1173 -366.3481
v  764.0450 156.2074 -369.8008
v  733.2976 173.5448 -333.2364
v  756.2578 172.0072 -337.0902
v  746.1014 154.3527 -373.1097
v  752.7231 158.8497 -372.2204
v  758.2546 150.9283 -373.8380
v  751.2259 147.7587 -376.3503
v  733.6404 156.4719 -369.9463
v  745.8758 161.1220 -369.8863
v  737.2996 150.1051 -375.0184
v  743.7206 146.3026 -377.6651
v  746.4041 145.7344 -377.9725
v  742.7958 146.4964 -377.5577
v  767.6364 170.7057 -348.1372
v  781.6358 168.0867 -350.2361
v  779.6092 167.8135 -356.1277
v  778.3922 164.9150 -358.4214
v  756.8729 180.2995 -313.5564
v  758.1426 178.2242 -319.9581
v  756.7709 175.1001 -329.1244
v  754.8249 171.1895 -341.3042
v  749.9212 165.7913 -360.5367
v  748.2889 160.9080 -365.8033
v  761.0279 174.2182 -330.6068
v  762.8815 176.0750 -325.5476
v  765.4503 177.6374 -320.7801
v  770.1218 176.7879 -316.0587
v  777.1246 175.7973 -313.3678
v  762.4433 140.7351 -316.3527
v  765.4703 140.1436 -317.0412
# 66 vertices

vn 0.0583 0.9711 -0.2314
vn 0.0011 0.9519 -0.3065
vn -0.1086 0.9637 -0.2437
vn 0.1254 0.9541 -0.2720
vn -0.1086 0.9637 -0.2437
vn 0.0011 0.9519 -0.3065
vn 0.1254 0.9541 -0.2720
vn 0.0011 0.9519 -0.3065
vn 0.1152 0.8694 -0.4806
vn 0.1553 0.9634 -0.2185
vn -0.1087 0.8715 -0.4782
vn 0.0011 0.9519 -0.3065
vn -0.1087 0.8715 -0.4782
vn -0.0216 0.7756 -0.6308
vn 0.0011 0.9519 -0.3065
vn 0.1152 0.8694 -0.4806
vn 0.0011 0.9519 -0.3065
vn -0.0216 0.7756 -0.6308
vn -0.0216 0.7756 -0.6308
vn 0.3195 0.6126 -0.7230
vn 0.1152 0.8694 -0.4806
vn 0.1254 0.9541 -0.2720
vn -0.0413 0.9791 -0.1989
vn -0.1086 0.9637 -0.2437
vn 0.1516 0.9458 -0.2872
vn -0.0413 0.9791 -0.1989
vn 0.1254 0.9541 -0.2720
vn -0.0413 0.9791 -0.1989
vn 0.1516 0.9458 -0.2872
vn -0.1086 0.9637 -0.2437
vn -0.2990 0.9430 0.1460
vn -0.1086 0.9637 -0.2437
vn 0.1516 0.9458 -0.2872
vn -0.1086 0.9637 -0.2437
vn -0.2990 0.9430 0.1460
vn -0.2567 0.9523 -0.1648
vn -0.1086 0.9637 -0.2437
vn -0.2567 0.9523 -0.1648
vn 0.0583 0.9711 -0.2314
vn 0.0583 0.9711 -0.2314
vn -0.2567 0.9523 -0.1648
vn -0.1492 0.9553 -0.2553
vn 0.0583 0.9711 -0.2314
vn -0.1492 0.9553 -0.2553
vn 0.1070 0.9860 -0.1280
vn 0.0583 0.9711 -0.2314
vn 0.1070 0.9860 -0.1280
vn 0.1951 0.9692 -0.1502
vn 0.1951 0.9692 -0.1502
vn 0.1070 0.9860 -0.1280
vn 0.1504 0.9878 -0.0408
vn 0.1504 0.9878 -0.0408
vn 0.1731 0.9813 -0.0841
vn 0.1951 0.9692 -0.1502
vn 0.1985 0.9801 -0.0038
vn 0.1731 0.9813 -0.0841
vn 0.1504 0.9878 -0.0408
vn 0.1985 0.9801 -0.0038
vn 0.2598 0.9496 -0.1753
vn 0.1731 0.9813 -0.0841
vn 0.2598 0.9496 -0.1753
vn 0.1951 0.9692 -0.1502
vn 0.1731 0.9813 -0.0841
vn 0.2598 0.9496 -0.1753
vn 0.2667 0.9461 -0.1835
vn 0.1951 0.9692 -0.1502
vn 0.2667 0.9461 -0.1835
vn 0.0583 0.9711 -0.2314
vn 0.1951 0.9692 -0.1502
vn 0.2667 0.9461 -0.1835
vn 0.2494 0.9602 -0.1258
vn 0.0583 0.9711 -0.2314
vn 0.2494 0.9602 -0.1258
vn 0.1934 0.9520 -0.2374
vn 0.0583 0.9711 -0.2314
vn 0.0583 0.9711 -0.2314
vn 0.1934 0.9520 -0.2374
vn 0.1553 0.9634 -0.2185
vn 0.0011 0.9519 -0.3065
vn 0.0583 0.9711 -0.2314
vn 0.1553 0.9634 -0.2185
vn 0.2598 0.9496 -0.1753
vn 0.4084 0.8797 -0.2436
vn 0.2667 0.9461 -0.1835
vn 0.1504 0.9878 -0.0408
vn 0.1288 0.9912 0.0297
vn 0.1985 0.9801 -0.0038
vn 0.0526 0.8582 -0.5107
vn -0.2079 0.8049 -0.5558
vn -0.1646 0.9335 -0.3186
vn -0.2079 0.8049 -0.5558
vn 0.0526 0.8582 -0.5107
vn 0.3513 0.6268 -0.6955
vn 0.1062 0.7931 -0.5998
vn 0.3513 0.6268 -0.6955
vn 0.0526 0.8582 -0.5107
vn 0.0120 0.9696 -0.2443
vn 0.0414 0.9575 -0.2853
vn -0.2170 0.9513 -0.2190
vn -0.2033 0.9397 -0.2749
vn -0.2170 0.9513 -0.2190
vn 0.0414 0.9575 -0.2853
vn -0.2033 0.9397 -0.2749
vn 0.0414 0.9575 -0.2853
vn 0.0695 0.9407 -0.3320
vn -0.2033 0.9397 -0.2749
vn 0.0695 0.9407 -0.3320
vn -0.1646 0.9335 -0.3186
vn -0.1646 0.9335 -0.3186
vn 0.0695 0.9407 -0.3320
vn 0.0526 0.8582 -0.5107
vn -0.0020 0.8991 -0.4378
vn 0.0526 0.8582 -0.5107
vn 0.0695 0.9407 -0.3320
vn 0.0526 0.8582 -0.5107
vn -0.0020 0.8991 -0.4378
vn 0.1062 0.7931 -0.5998
vn 0.1062 0.7931 -0.5998
vn -0.0020 0.8991 -0.4378
vn 0.0494 0.7714 -0.6345
vn 0.0494 0.7714 -0.6345
vn -0.0912 0.5685 -0.8176
vn 0.1062 0.7931 -0.5998
vn -0.0338 0.4984 -0.8663
vn 0.1062 0.7931 -0.5998
vn -0.0912 0.5685 -0.8176
vn 0.3513 0.6268 -0.6955
vn 0.1062 0.7931 -0.5998
vn -0.0338 0.4984 -0.8663
vn -0.1850 0.5814 -0.7923
vn 0.3513 0.6268 -0.6955
vn -0.0338 0.4984 -0.8663
vn 0.3513 0.6268 -0.6955
vn -0.1850 0.5814 -0.7923
vn -0.2079 0.8049 -0.5558
vn 0.3195 0.6126 -0.7230
vn 0.3439 0.5126 -0.7867
vn 0.0494 0.7714 -0.6345
vn -0.0912 0.5685 -0.8176
vn 0.0494 0.7714 -0.6345
vn 0.3439 0.5126 -0.7867
vn 0.3439 0.5126 -0.7867
vn 0.1592 0.3692 -0.9156
vn -0.0912 0.5685 -0.8176
vn -0.0338 0.4984 -0.8663
vn -0.0912 0.5685 -0.8176
vn 0.1592 0.3692 -0.9156
vn 0.1592 0.3692 -0.9156
vn 0.0725 0.4942 -0.8663
vn -0.0338 0.4984 -0.8663
vn 0.0083 0.5221 -0.8528
vn -0.0338 0.4984 -0.8663
vn 0.0725 0.4942 -0.8663
vn 0.0725 0.4942 -0.8663
vn 0.0298 0.5809 -0.8135
vn 0.0083 0.5221 -0.8528
vn -0.0338 0.4984 -0.8663
vn -0.0828 0.5512 -0.8303
vn -0.1850 0.5814 -0.7923
vn -0.0828 0.5512 -0.8303
vn -0.0338 0.4984 -0.8663
vn 0.0083 0.5221 -0.8528
vn 0.0083 0.5221 -0.8528
vn 0.0364 0.6116 -0.7904
vn -0.0828 0.5512 -0.8303
vn 0.0120 0.9696 -0.2443
vn 0.0208 0.9844 -0.1747
vn 0.2665 0.9121 -0.3116
vn 0.2665 0.9121 -0.3116
vn 0.2777 0.8966 -0.3449
vn 0.0120 0.9696 -0.2443
vn 0.0414 0.9575 -0.2853
vn 0.0120 0.9696 -0.2443
vn 0.2777 0.8966 -0.3449
vn 0.2777 0.8966 -0.3449
vn 0.1516 0.9458 -0.2872
vn 0.0414 0.9575 -0.2853
vn 0.1516 0.9458 -0.2872
vn 0.0695 0.9407 -0.3320
vn 0.0414 0.9575 -0.2853
vn 0.1516 0.9458 -0.2872
vn 0.1254 0.9541 -0.2720
vn 0.0695 0.9407 -0.3320
vn 0.0695 0.9407 -0.3320
vn 0.1254 0.9541 -0.2720
vn -0.0020 0.8991 -0.4378
vn -0.0020 0.8991 -0.4378
vn 0.1254 0.9541 -0.2720
vn 0.1152 0.8694 -0.4806
vn 0.1152 0.8694 -0.4806
vn 0.0494 0.7714 -0.6345
vn -0.0020 0.8991 -0.4378
vn 0.0494 0.7714 -0.6345
vn 0.1152 0.8694 -0.4806
vn 0.3195 0.6126 -0.7230
vn 0.1516 0.9458 -0.2872
vn -0.1532 0.9539 0.2582
vn -0.2990 0.9430 0.1460
vn 0.1876 0.7273 0.6602
vn -0.2990 0.9430 0.1460
vn -0.1532 0.9539 0.2582
vn -0.1532 0.9539 0.2582
vn 0.2035 0.7350 0.6468
vn 0.1876 0.7273 0.6602
vn 0.1876 0.7273 0.6602
vn 0.2035 0.7350 0.6468
vn 0.2840 0.1841 0.9410
vn 0.2840 0.1841 0.9410
vn 0.2810 0.1687 0.9448
vn 0.1876 0.7273 0.6602
vn 0.2810 0.1687 0.9448
vn 0.2840 0.1841 0.9410
vn 0.2660 0.0513 0.9626
vn 0.2660 0.0513 0.9626
vn 0.2632 0.0660 0.9625
vn 0.2810 0.1687 0.9448
vn 0.2632 0.0660 0.9625
vn 0.2660 0.0513 0.9626
vn 0.2496 0.1529 0.9562
vn 0.2496 0.1529 0.9562
vn 0.2475 0.1531 0.9567
vn 0.2632 0.0660 0.9625
vn -0.2170 0.9513 -0.2190
vn -0.2258 0.9592 -0.1702
vn 0.0120 0.9696 -0.2443
vn 0.0208 0.9844 -0.1747
vn 0.0120 0.9696 -0.2443
vn -0.2258 0.9592 -0.1702
vn 0.0208 0.9844 -0.1747
vn -0.2258 0.9592 -0.1702
vn -0.2281 0.9384 -0.2595
vn 0.0208 0.9844 -0.1747
vn -0.2281 0.9384 -0.2595
vn -0.2285 0.9717 -0.0594
vn 0.0208 0.9844 -0.1747
vn -0.2285 0.9717 -0.0594
vn -0.1564 0.9877 0.0048
vn -0.1564 0.9877 0.0048
vn -0.0012 0.9996 -0.0287
vn 0.0208 0.9844 -0.1747
vn -0.1564 0.9877 0.0048
vn -0.0276 0.9970 -0.0723
vn -0.0012 0.9996 -0.0287
vn -0.0276 0.9970 -0.0723
vn 0.2063 0.9689 -0.1369
vn -0.0012 0.9996 -0.0287
vn 0.0208 0.9844 -0.1747
vn -0.0012 0.9996 -0.0287
vn 0.2063 0.9689 -0.1369
vn 0.2063 0.9689 -0.1369
vn 0.2665 0.9121 -0.3116
vn 0.0208 0.9844 -0.1747
# 252 vertex normals

vt 0.1147 0.8180 0.0000
vt 0.2532 0.8181 0.0000
vt 0.2532 0.9988 0.0000
vt 0.1904 0.9773 0.0000
vt 0.0918 0.9448 0.0000
vt 0.1295 0.5925 0.0000
vt 0.2532 0.6174 0.0000
vt 0.2532 0.6472 0.0000
vt 0.1238 0.6313 0.0000
vt 0.0015 0.6008 0.0000
vt 0.0015 0.5547 0.0000
vt 0.0934 0.3184 0.0000
vt 0.1636 0.2959 0.0000
vt 0.1910 0.3081 0.0000
vt 0.1598 0.4414 0.0000
vt 0.0749 0.4248 0.0000
vt 0.0015 0.4053 0.0000
vt 0.2532 0.2837 0.0000
vt 0.3254 0.2583 0.0000
vt 0.2842 0.4604 0.0000
vt 0.3350 0.6321 0.0000
vt 0.3220 0.6543 0.0000
vt 0.5049 0.9988 0.0000
vt 0.4495 0.7817 0.0000
vt 0.7275 0.7102 0.0000
vt 0.7988 0.8754 0.0000
vt 0.3296 0.8119 0.0000
vt 0.3372 0.9640 0.0000
vt 0.0362 0.8961 0.0000
vt 0.0512 0.8080 0.0000
vt 0.0015 0.8000 0.0000
vt 0.7407 0.5347 0.0000
vt 0.6079 0.4814 0.0000
vt 0.7529 0.3618 0.0000
vt 0.7993 0.3945 0.0000
vt 0.3640 0.9988 0.0000
vt 0.3525 0.6416 0.0000
vt 0.8940 0.6392 0.0000
vt 0.8267 0.5696 0.0000
vt 0.8916 0.4541 0.0000
vt 0.9570 0.5398 0.0000
vt 0.8789 0.8231 0.0000
vt 0.8062 0.6765 0.0000
vt 0.9644 0.7446 0.0000
vt 1.0000 0.6387 0.0000
vt 1.0000 0.5989 0.0000
vt 1.0000 0.6523 0.0000
vt 0.4351 0.4614 0.0000
vt 0.4319 0.2451 0.0000
vt 0.5049 0.2534 0.0000
vt 0.5527 0.2603 0.0000
vt 0.0636 0.7361 0.0000
vt 0.1375 0.6921 0.0000
vt 0.2532 0.6736 0.0000
vt 0.4133 0.6414 0.0000
vt 0.6973 0.6401 0.0000
vt 0.7876 0.6396 0.0000
vt 0.2532 0.6116 0.0000
vt 0.1917 0.6025 0.0000
vt 0.1260 0.5862 0.0000
vt 0.0548 0.5398 0.0000
vt 0.0015 0.4521 0.0000
vt 0.1147 0.8180 0.0000
vt 0.2532 0.8181 0.0000
vt 0.2532 0.9988 0.0000
vt 0.1904 0.9773 0.0000
vt 0.0918 0.9448 0.0000
vt 0.1295 0.5925 0.0000
vt 0.2532 0.6174 0.0000
vt 0.2532 0.6472 0.0000
vt 0.1238 0.6313 0.0000
vt 0.0626 0.6162 0.0000
vt 0.0655 0.5735 0.0000
vt 0.0976 0.5830 0.0000
vt 0.0931 0.6238 0.0000
vt 0.0934 0.3184 0.0000
vt 0.1636 0.2959 0.0000
vt 0.1910 0.3081 0.0000
vt 0.1598 0.4414 0.0000
vt 0.0749 0.4248 0.0000
vt 0.0015 0.4053 0.0000
vt 0.2532 0.2837 0.0000
vt 0.3254 0.2583 0.0000
vt 0.2842 0.4604 0.0000
vt 0.3350 0.6321 0.0000
vt 0.3220 0.6543 0.0000
vt 0.5049 0.9988 0.0000
vt 0.4495 0.7817 0.0000
vt 0.7275 0.7102 0.0000
vt 0.7988 0.8754 0.0000
vt 0.3296 0.8119 0.0000
vt 0.3372 0.9640 0.0000
vt 0.0362 0.8961 0.0000
vt 0.0512 0.8080 0.0000
vt 0.0015 0.8000 0.0000
vt 0.7407 0.5347 0.0000
vt 0.6079 0.4814 0.0000
vt 0.7529 0.3618 0.0000
vt 0.7993 0.3945 0.0000
vt 0.3640 0.9988 0.0000
vt 0.3525 0.6416 0.0000
vt 0.8940 0.6392 0.0000
vt 0.8267 0.5696 0.0000
vt 0.8916 0.4541 0.0000
vt 0.9570 0.5398 0.0000
vt 0.8789 0.8231 0.0000
vt 0.8062 0.6765 0.0000
vt 0.9644 0.7446 0.0000
vt 1.0000 0.6387 0.0000
vt 1.0000 0.5989 0.0000
vt 1.0000 0.6523 0.0000
vt 0.4351 0.4614 0.0000
vt 0.4319 0.2451 0.0000
vt 0.5049 0.2534 0.0000
vt 0.5527 0.2603 0.0000
vt 0.0636 0.7361 0.0000
vt 0.1375 0.6921 0.0000
vt 0.2532 0.6736 0.0000
vt 0.4133 0.6414 0.0000
vt 0.6973 0.6401 0.0000
vt 0.7876 0.6396 0.0000
vt 0.2532 0.6116 0.0000
vt 0.1917 0.6025 0.0000
vt 0.1260 0.5862 0.0000
vt 0.0548 0.5398 0.0000
vt 0.0015 0.4521 0.0000
vt 0.0015 0.6008 0.0000
vt 0.0015 0.5547 0.0000
vt 0.1147 0.8180 0.0000
vt 0.2532 0.8181 0.0000
vt 0.2532 0.9988 0.0000
vt 0.1904 0.9773 0.0000
vt 0.0918 0.9448 0.0000
vt 0.1295 0.5925 0.0000
vt 0.2532 0.6174 0.0000
vt 0.2532 0.6472 0.0000
vt 0.1238 0.6313 0.0000
vt 0.0015 0.6008 0.0000
vt 0.0015 0.5547 0.0000
vt 0.0934 0.3184 0.0000
vt 0.1636 0.2959 0.0000
vt 0.1910 0.3081 0.0000
vt 0.1598 0.4414 0.0000
vt 0.0749 0.4248 0.0000
vt 0.0015 0.4053 0.0000
vt 0.2532 0.2837 0.0000
vt 0.3254 0.2583 0.0000
vt 0.2842 0.4604 0.0000
vt 0.3350 0.6321 0.0000
vt 0.3220 0.6543 0.0000
vt 0.5049 0.9988 0.0000
vt 0.4495 0.7817 0.0000
vt 0.7275 0.7102 0.0000
vt 0.7988 0.8754 0.0000
vt 0.3296 0.8119 0.0000
vt 0.3372 0.9640 0.0000
vt 0.0362 0.8961 0.0000
vt 0.0512 0.8080 0.0000
vt 0.0015 0.8000 0.0000
vt 0.7407 0.5347 0.0000
vt 0.6079 0.4814 0.0000
vt 0.7529 0.3618 0.0000
vt 0.7993 0.3945 0.0000
vt 0.3640 0.9988 0.0000
vt 0.3525 0.6416 0.0000
vt 0.8940 0.6392 0.0000
vt 0.8267 0.5696 0.0000
vt 0.8916 0.4541 0.0000
vt 0.9570 0.5398 0.0000
vt 0.8789 0.8231 0.0000
vt 0.8062 0.6765 0.0000
vt 0.9644 0.7446 0.0000
vt 1.0000 0.6387 0.0000
vt 1.0000 0.5989 0.0000
vt 1.0000 0.6523 0.0000
vt 0.4351 0.4614 0.0000
vt 0.4319 0.2451 0.0000
vt 0.5049 0.2534 0.0000
vt 0.5527 0.2603 0.0000
vt 0.0636 0.7361 0.0000
vt 0.1375 0.6921 0.0000
vt 0.2532 0.6736 0.0000
vt 0.4133 0.6414 0.0000
vt 0.6973 0.6401 0.0000
vt 0.7876 0.6396 0.0000
vt 0.2532 0.6116 0.0000
vt 0.1917 0.6025 0.0000
vt 0.1260 0.5862 0.0000
vt 0.0548 0.5398 0.0000
vt 0.0015 0.4521 0.0000
vt 0.1147 0.8180 0.0000
vt 0.2532 0.8181 0.0000
vt 0.2532 0.9988 0.0000
vt 0.1904 0.9773 0.0000
vt 0.0918 0.9448 0.0000
vt 0.1295 0.5925 0.0000
vt 0.2532 0.6174 0.0000
vt 0.2532 0.6472 0.0000
vt 0.1238 0.6313 0.0000
vt 0.0015 0.6008 0.0000
vt 0.0015 0.5547 0.0000
vt 0.0934 0.3184 0.0000
vt 0.1636 0.2959 0.0000
vt 0.1910 0.3081 0.0000
vt 0.1598 0.4414 0.0000
vt 0.0749 0.4248 0.0000
vt 0.0015 0.4053 0.0000
vt 0.2532 0.2837 0.0000
vt 0.3254 0.2583 0.0000
vt 0.2842 0.4604 0.0000
vt 0.3350 0.6321 0.0000
vt 0.3220 0.6543 0.0000
vt 0.5049 0.9988 0.0000
vt 0.4495 0.7817 0.0000
vt 0.7275 0.7102 0.0000
vt 0.7988 0.8754 0.0000
vt 0.3296 0.8119 0.0000
vt 0.3372 0.9640 0.0000
vt 0.0362 0.8961 0.0000
vt 0.0512 0.8080 0.0000
vt 0.0015 0.8000 0.0000
vt 0.7407 0.5347 0.0000
vt 0.6079 0.4814 0.0000
vt 0.7529 0.3618 0.0000
vt 0.7993 0.3945 0.0000
vt 0.3640 0.9988 0.0000
vt 0.3525 0.6416 0.0000
vt 0.8940 0.6392 0.0000
vt 0.8267 0.5696 0.0000
vt 0.8916 0.4541 0.0000
vt 0.9570 0.5398 0.0000
vt 0.8789 0.8231 0.0000
vt 0.8062 0.6765 0.0000
vt 0.9644 0.7446 0.0000
vt 1.0000 0.6387 0.0000
vt 1.0000 0.5989 0.0000
vt 1.0000 0.6523 0.0000
vt 0.4351 0.4614 0.0000
vt 0.4319 0.2451 0.0000
vt 0.5049 0.2534 0.0000
vt 0.5527 0.2603 0.0000
vt 0.0636 0.7361 0.0000
vt 0.1375 0.6921 0.0000
vt 0.2532 0.6736 0.0000
vt 0.4133 0.6414 0.0000
vt 0.6973 0.6401 0.0000
vt 0.7876 0.6396 0.0000
vt 0.2532 0.6116 0.0000
vt 0.1917 0.6025 0.0000
vt 0.1260 0.5862 0.0000
vt 0.0548 0.5398 0.0000
vt 0.0015 0.4521 0.0000
# 252 texture coords

g StaticMeshActor_7
f 22/84/1 50/112/2 23/85/3 
f 57/119/4 23/85/5 50/112/6 
f 57/119/7 50/112/8 35/97/9 
f 51/113/10 52/114/11 50/112/12 
f 52/114/13 53/115/14 50/112/15 
f 35/97/16 50/112/17 53/115/18 
f 53/115/19 36/98/20 35/97/21 
f 57/119/22 39/101/23 23/85/24 
f 24/86/25 39/101/26 57/119/27 
f 39/101/28 24/86/29 23/85/30 
f 7/69/31 23/85/32 24/86/33 
f 23/85/34 7/69/35 60/122/36 
f 23/85/37 60/122/38 22/84/39 
f 22/84/40 60/122/41 61/123/42 
f 22/84/43 61/123/44 62/124/45 
f 22/84/46 62/124/47 17/79/48 
f 17/79/49 62/124/50 63/125/51 
f 63/125/52 18/80/53 17/79/54 
f 19/81/55 18/80/56 63/125/57 
f 19/81/58 14/76/59 18/80/60 
f 14/76/61 17/79/62 18/80/63 
f 14/76/64 16/78/65 17/79/66 
f 16/78/67 22/84/68 17/79/69 
f 16/78/70 20/82/71 22/84/72 
f 20/82/73 21/83/74 22/84/75 
f 22/84/76 21/83/77 51/113/78 
f 50/112/79 22/84/80 51/113/81 
f 14/76/82 15/77/83 16/78/84 
f 63/125/85 64/126/86 19/81/87 
f 27/89/88 28/90/89 25/87/90 
f 28/90/91 27/89/92 45/107/93 
f 59/121/94 45/107/95 27/89/96 
f 2/64/97 29/91/98 30/92/99 
f 38/100/100 30/92/101 29/91/102 
f 38/100/103 29/91/104 26/88/105 
f 38/100/106 26/88/107 25/87/108 
f 25/87/109 26/88/110 27/89/111 
f 58/120/112 27/89/113 26/88/114 
f 27/89/115 58/120/116 59/121/117 
f 59/121/118 58/120/119 34/96/120 
f 34/96/121 41/103/122 59/121/123 
f 40/102/124 59/121/125 41/103/126 
f 45/107/127 59/121/128 40/102/129 
f 44/106/130 45/107/131 40/102/132 
f 45/107/133 44/106/134 28/90/135 
f 36/98/136 37/99/137 34/96/138 
f 41/103/139 34/96/140 37/99/141 
f 37/99/142 42/104/143 41/103/144 
f 40/102/145 41/103/146 42/104/147 
f 42/104/148 43/105/149 40/102/150 
f 47/109/151 40/102/152 43/105/153 
f 43/105/154 48/110/155 47/109/156 
f 40/102/157 46/108/158 44/106/159 
f 46/108/160 40/102/161 47/109/162 
f 47/109/163 49/111/164 46/108/165 
f 2/64/166 1/63/167 55/117/168 
f 55/117/169 56/118/170 2/64/171 
f 29/91/172 2/64/173 56/118/174 
f 56/118/175 24/86/176 29/91/177 
f 24/86/178 26/88/179 29/91/180 
f 24/86/181 57/119/182 26/88/183 
f 26/88/184 57/119/185 58/120/186 
f 58/120/187 57/119/188 35/97/189 
f 35/97/190 34/96/191 58/120/192 
f 34/96/193 35/97/194 36/98/195 
f 24/86/196 8/70/197 7/69/198 
f 6/68/199 7/69/200 8/70/201 
f 8/70/202 9/71/203 6/68/204 
f 6/68/205 9/71/206 13/75/207 
f 13/75/208 12/74/209 6/68/210 
f 12/74/211 13/75/212 10/72/213 
f 10/72/214 11/73/215 12/74/216 
f 11/73/217 10/72/218 65/127/219 
f 65/127/220 66/128/221 11/73/222 
f 30/92/223 3/65/224 2/64/225 
f 1/63/226 2/64/227 3/65/228 
f 1/63/229 3/65/230 4/66/231 
f 1/63/232 4/66/233 5/67/234 
f 1/63/235 5/67/236 31/93/237 
f 31/93/238 32/94/239 1/63/240 
f 31/93/241 33/95/242 32/94/243 
f 33/95/244 54/116/245 32/94/246 
f 1/63/247 32/94/248 54/116/249 
f 54/116/250 55/117/251 1/63/252 
# 84 faces

